<svg width="42" height="36" viewBox="0 0 42 36" fill="none" xmlns="http://www.w3.org/2000/svg">
<g id="Group">
<path id="Vector" d="M7.79254 35.7656H32.1556C34.6417 35.7656 36.658 34.0489 36.658 31.9298V14.9187C40.8848 14.7757 43.413 10.7833 41.1552 7.68067L39.8373 5.87003C39.3384 5.18394 38.642 4.61768 37.814 4.22492C36.9861 3.83217 36.0542 3.62592 35.1064 3.62574H31.3391V2.20406C31.3391 1.91462 31.2721 1.62801 31.142 1.3606C31.0119 1.09319 30.8213 0.850219 30.5809 0.645553C30.3405 0.440887 30.0552 0.278538 29.7411 0.167774C29.4271 0.0570098 29.0904 0 28.7505 0C27.9076 0.000293491 27.0729 0.141952 26.2943 0.416887C25.5156 0.691822 24.8082 1.09465 24.2124 1.60237C23.6166 2.11009 23.1441 2.71276 22.8218 3.37597C22.4996 4.03918 22.3339 4.74994 22.3342 5.46767V13.193C18.979 13.4747 16.4456 14.8249 14.5843 16.7294C12.5312 18.8306 11.321 21.5689 10.6016 24.1999C9.87705 26.8421 9.62239 29.4709 9.54363 31.4246C9.51213 32.2606 9.51213 32.9804 9.52263 33.5303H7.79254C6.78391 33.5303 5.79725 33.2794 4.95389 32.8084C4.11052 32.3373 3.44723 31.6667 3.04557 30.8789C2.64392 30.0911 2.52141 29.2206 2.69312 28.3743C2.86484 27.5281 3.32328 26.743 4.01207 26.1156L6.42737 23.9093C8.09199 22.3891 8.99874 20.3781 8.95663 18.3C8.91451 16.2219 7.92682 14.2387 6.20159 12.7683L3.83092 10.7498C3.70983 10.6431 3.56499 10.5579 3.40484 10.4993C3.24469 10.4408 3.07244 10.4099 2.89814 10.4086C2.72385 10.4073 2.551 10.4356 2.38968 10.4918C2.22836 10.548 2.08179 10.631 1.95854 10.736C1.8353 10.8409 1.73783 10.9657 1.67182 11.103C1.60582 11.2404 1.57261 11.3876 1.57412 11.536C1.57564 11.6844 1.61185 11.831 1.68065 11.9674C1.74944 12.1038 1.84944 12.2271 1.97482 12.3302L4.34548 14.3487C5.59097 15.4089 6.30412 16.8395 6.33449 18.3388C6.36486 19.838 5.71007 21.2887 4.50825 22.3848L2.09296 24.5911C1.05784 25.5376 0.369576 26.7207 0.112554 27.9954C-0.144469 29.2701 0.0409171 30.5809 0.645983 31.7672C1.25105 32.9535 2.2495 33.9637 3.51892 34.6739C4.78835 35.3841 6.27358 35.7635 7.79254 35.7656ZM28.7164 2.23535V4.74342C28.7164 5.03984 28.8547 5.32413 29.1009 5.53373C29.347 5.74334 29.6809 5.86109 30.029 5.86109H35.1064C36.125 5.86109 37.0702 6.30816 37.6057 7.04583L38.9263 8.8587C39.2026 9.23844 39.3549 9.67415 39.3672 10.1208C39.3796 10.5674 39.2516 11.0087 38.9965 11.3991C38.7414 11.7895 38.3685 12.1148 37.9163 12.3414C37.4641 12.568 36.949 12.6876 36.4243 12.6879H35.348C34.9998 12.6879 34.6659 12.8056 34.4198 13.0152C34.1736 13.2248 34.0353 13.5091 34.0353 13.8055V31.9298C34.0353 32.8127 33.1952 33.5303 32.1556 33.5303H30.2758V31.9298C30.2765 30.1919 29.4666 28.525 28.0241 27.2955C26.5816 26.066 24.6247 25.3747 22.5836 25.3735H19.9215C19.5734 25.3735 19.2395 25.4912 18.9933 25.7008C18.7472 25.9104 18.6089 26.1947 18.6089 26.4912C18.6089 26.7876 18.7472 27.0719 18.9933 27.2815C19.2395 27.4911 19.5734 27.6088 19.9215 27.6088H22.581C25.3822 27.6088 27.6531 29.5424 27.6531 31.9298V33.5303H12.148C12.1348 33.0072 12.1348 32.3142 12.1663 31.4983C12.2398 29.6296 12.4814 27.1618 13.1561 24.7073C13.8308 22.2395 14.915 19.8812 16.6005 18.1578C18.2466 16.479 20.4807 15.3747 23.6469 15.3747C23.995 15.3747 24.3289 15.257 24.5751 15.0474C24.8212 14.8378 24.9595 14.5535 24.9595 14.2571V5.46767C24.9595 3.6928 26.6371 2.251 28.7138 2.23535H28.7164Z" fill="white"/>
</g>
</svg>
