<svg width="42" height="36" viewBox="0 0 42 36" fill="none" xmlns="http://www.w3.org/2000/svg">
<g id="Group">
<path id="Vector" d="M0.306367 10.9417C0.61297 10.4004 1.07847 10.0682 1.44808 9.87632C1.39137 9.19263 1.40608 8.08043 1.98778 7.40156C2.46728 6.84168 3.21138 6.68211 4.09899 6.98543C4.31459 6.11329 4.81439 4.97083 5.9673 4.97083C6.4657 4.97083 6.98301 5.204 7.53181 5.67928C7.91331 5.2659 8.48451 4.83327 9.20692 4.83327C9.95242 4.83327 10.6272 5.2831 11.2117 6.17106C12.7895 8.56672 13.6841 11.47 13.9508 14.9029C14.6678 14.3574 15.3526 13.7722 16.0019 13.1503C16.447 12.7226 16.9327 12.3375 17.4523 12.0003C17.6227 11.7143 17.7905 11.4268 17.9556 11.1378C19.3185 8.75724 20.7248 6.30175 24.3158 5.14416C22.8885 4.3236 21.2757 3.95218 21.2554 3.94805L18.6171 3.35378L21.2246 2.64052C21.2897 2.62263 22.7723 2.22301 24.7869 2.17968C24.3006 1.8482 23.7909 1.55123 23.2616 1.29103L20.8403 0.157509L23.5206 0.00825317C23.5206 0.00825317 23.6683 0 23.9329 0C25.9839 0 32.7956 0.451893 35.1246 6.21371C36.2047 6.99713 37.0881 8.03435 37.7685 9.25041C38.8073 9.25109 40.4607 9.47326 42 10.6425L38.9039 12.1771C38.9466 12.3483 38.9984 12.5141 39.0348 12.6895L42 13.4633C41.1663 14.1077 40.0729 14.4909 39.2854 14.7013C39.3057 15.0294 39.3316 15.3527 39.3316 15.689C39.3316 23.8623 35.308 28.8531 27.6366 30.3628V34.987C27.8662 35.0262 29.1164 34.9196 29.6267 34.9196C30.8958 34.9196 31.9255 35.7656 31.9255 35.7656H26.1862V30.6098C24.8707 30.7787 23.5453 30.8612 22.2186 30.8567C21.9841 30.8567 21.7559 30.8471 21.5256 30.8409V34.9863C21.7545 35.0255 23.0061 34.9189 23.5157 34.9189C24.7848 34.9189 25.8138 35.7649 25.8138 35.7649H20.0752V30.7501C10.0609 29.7589 4.82909 22.0018 4.82909 19.1996C4.82909 18.7856 4.92989 18.4417 5.1252 18.1789C5.22398 18.0475 5.34886 17.9372 5.49228 17.8545C5.63569 17.7719 5.79467 17.7187 5.9596 17.6981C5.2995 17.2572 4.61839 16.8624 3.96039 16.489C2.17188 15.4758 0.626271 14.6002 0.160768 13.1077C-0.0954349 12.294 -0.0443332 11.5656 0.306367 10.9417ZM9.07742 19.179C10.2842 20.3999 13.0632 22.715 16.8083 22.715C18.3805 22.715 19.9863 22.3065 21.5795 21.5031C24.2941 20.1344 25.5653 17.9031 24.9808 15.5343C24.4978 13.5809 22.8479 12.2163 20.9684 12.2163C19.6433 12.2163 18.2594 12.8724 16.9644 14.1153C13.7366 17.2118 10.6419 18.6157 9.07742 19.179ZM7.11531 21.6372C9.27762 25.2668 14.529 29.5065 22.2186 29.5065C32.6605 29.5065 37.9547 24.8569 37.9547 15.6883C37.9547 11.9528 36.5701 8.85629 34.1572 7.19522L33.9829 7.07416L33.908 6.87745C32.4876 3.12611 28.7986 1.90524 26.1953 1.51938C26.5649 1.80345 26.9394 2.12397 27.2845 2.47819L28.6131 3.83869L26.7042 3.61515C25.8702 3.52286 25.0295 3.50307 24.1919 3.556C24.9346 3.90472 25.7137 4.36143 26.3542 4.94125L27.323 5.8189L26.0336 6.0954C25.8292 6.13943 25.6255 6.18344 25.4169 6.23503C22.2067 7.03702 20.8291 8.93539 19.5922 11.0435C20.0414 10.9287 20.5035 10.8693 20.9677 10.8668C23.4849 10.8668 25.685 12.6558 26.3192 15.2172C26.8939 17.5441 26.1162 20.7321 22.2095 22.704C20.4182 23.6071 18.6017 24.0652 16.8076 24.0652C11.0458 24.0652 7.46111 19.4493 7.31271 19.2533L7.12651 19.0091C6.83181 19.0201 6.5308 19.0263 6.2179 19.0277C6.1584 19.2918 6.2571 20.1956 7.11531 21.6372ZM1.47608 12.7129C1.78338 13.6978 3.11198 14.4496 4.64919 15.321C5.75309 15.947 6.9781 16.6657 8.08621 17.6005C8.68817 17.5548 9.28743 17.4795 9.88172 17.3749C10.8374 16.9317 11.7575 16.4181 12.6341 15.8383C12.4724 12.2637 11.6275 9.29718 10.0539 6.9029C9.75222 6.4455 9.44422 6.18344 9.20552 6.18344C8.82541 6.18344 8.36691 6.77359 8.21711 7.04115L7.74461 7.90023L7.09081 7.16427C6.3782 6.36159 6.0289 6.32101 5.9659 6.32101C5.71389 6.32101 5.38 7.19797 5.3163 8.02678L5.2351 9.11078L4.28099 8.55915C3.71399 8.23175 3.39759 8.18292 3.25969 8.18292C3.12669 8.18292 3.08119 8.2235 3.04199 8.26821C2.75498 8.6018 2.77108 9.60876 2.87398 10.1824L2.97338 10.7822L2.37908 10.9493C2.37278 10.9507 1.77078 11.1254 1.50688 11.6027C1.34728 11.893 1.33608 12.2665 1.47608 12.7129Z" fill="white"/>
</g>
</svg>
