<svg width="42" height="36" viewBox="0 0 42 36" fill="none" xmlns="http://www.w3.org/2000/svg">
<g id="Group">
<path id="Vector" d="M24.8714 0H31.9107C33.0357 0 34.1363 0.252148 35.0933 0.729619L41.211 3.77506C41.4522 3.89513 41.6514 4.06321 41.7895 4.26325C41.9276 4.46329 42.0001 4.68863 42 4.91777V7.60019C42 8.66733 41.4761 9.69075 40.5435 10.4453C39.6109 11.1999 38.3461 11.6238 37.0272 11.6238H36.4747V27.8024C38.6782 28.042 40.2208 28.7949 41.1049 30.0825C41.5978 30.8031 41.8077 31.5846 41.905 32.3053C42 33.0045 42 33.7359 42 34.3797V34.4244C42 34.7801 41.8254 35.1213 41.5145 35.3728C41.2036 35.6243 40.782 35.7656 40.3424 35.7656H8.47883C6.62435 35.7669 4.82057 35.2758 3.3443 34.3677C1.86804 33.4595 0.800853 32.1845 0.306519 30.7383C-0.187816 29.2921 -0.0819861 27.7546 0.607768 26.3617C1.29752 24.9688 2.53309 23.7976 4.12486 23.0277C4.50205 22.8446 4.95368 22.7903 5.38039 22.8766C5.8071 22.963 6.17393 23.183 6.40019 23.4882C6.62645 23.7934 6.69361 24.1588 6.58688 24.5041C6.48015 24.8493 6.20828 25.1461 5.83108 25.3292C4.86187 25.7975 4.10939 26.5103 3.68916 27.3581C3.26892 28.2059 3.20415 29.1418 3.50479 30.0222C3.80543 30.9027 4.45487 31.6789 5.35341 32.2319C6.25195 32.7848 7.34993 33.0839 8.47883 33.0832C9.18386 33.0832 9.62147 32.9348 9.91321 32.7685C10.2204 32.5932 10.4613 32.3428 10.6448 32.0406C10.8764 31.6538 11.0166 31.2353 11.0581 30.8067V30.7441L11.0669 30.4884C11.133 29.1747 11.3251 27.8671 11.6415 26.5774C12.2162 24.2688 13.403 21.2698 15.9557 19.1757C17.8299 17.6378 18.8488 15.3864 19.3748 13.16C19.8986 10.9622 19.8986 8.95571 19.8986 8.04727V4.02363C19.8986 2.9565 20.4225 1.93307 21.3551 1.17849C22.2877 0.423917 23.5526 0 24.8714 0ZM12.7157 30.8478L14.3733 30.8943V30.9051L14.3711 30.923L14.3666 30.973C14.3455 31.201 14.3086 31.4279 14.2561 31.6526C14.1699 32.0335 14.0086 32.5467 13.7036 33.0832H29.7271C29.5282 32.1998 28.9757 31.2842 27.4882 30.7227C27.149 30.6029 26.7902 30.5234 26.4229 30.4866C25.9095 30.4224 25.3909 30.3896 24.8714 30.3883L24.246 30.3954L23.9343 30.399H23.8017C23.5799 30.408 23.3582 30.3808 23.1496 30.3191C22.9411 30.2574 22.75 30.1625 22.5876 30.0399C22.4253 29.9173 22.2951 29.7695 22.2047 29.6054C22.1143 29.4413 22.0656 29.2641 22.0615 29.0845C22.0573 28.9049 22.0978 28.7264 22.1806 28.5597C22.2633 28.3929 22.3866 28.2413 22.5432 28.1139C22.6997 27.9865 22.8863 27.8858 23.0919 27.8179C23.2975 27.7499 23.5178 27.7161 23.7398 27.7184L23.8769 27.7166L24.1929 27.713L24.8714 27.7058C25.3908 27.7058 25.9654 27.7345 26.529 27.7899V23.7001C26.529 23.3444 26.7037 23.0032 27.0145 22.7517C27.3254 22.5002 27.747 22.3589 28.1866 22.3589C28.6263 22.3589 29.0479 22.5002 29.3587 22.7517C29.6696 23.0032 29.8442 23.3444 29.8442 23.7001V28.7144C32.198 29.934 32.881 31.7599 33.0777 33.0832H38.6561C38.6461 32.9219 38.6306 32.7609 38.6096 32.6004C38.5367 32.0621 38.4019 31.6705 38.2052 31.3843C37.9179 30.9659 37.2482 30.4008 34.8171 30.4008C34.3774 30.4008 33.9558 30.2595 33.6449 30.0079C33.3341 29.7564 33.1594 29.4153 33.1594 29.0596V10.2826C33.1594 9.9269 33.3341 9.58576 33.6449 9.33424C33.9558 9.08271 34.3774 8.94141 34.8171 8.94141H37.0272C37.4668 8.94141 37.8884 8.8001 38.1993 8.54857C38.5102 8.29705 38.6848 7.95591 38.6848 7.60019V5.66885L33.3562 3.01325C32.9215 2.79681 32.4211 2.68228 31.9107 2.68242H24.8692C24.43 2.6829 24.0089 2.82441 23.6985 3.07588C23.3882 3.32736 23.2138 3.66823 23.2138 4.02363V8.01508C23.2265 8.37658 23.3857 8.72469 23.6669 9.00578C23.8901 9.20965 24.2415 9.38848 24.8714 9.38848C25.5057 9.38848 25.8726 9.20786 26.1003 8.99684C26.392 8.70308 26.5441 8.33451 26.529 7.95785C26.529 7.60214 26.7037 7.261 27.0145 7.00947C27.3254 6.75795 27.747 6.61664 28.1866 6.61664C28.6263 6.61664 29.0479 6.75795 29.3587 7.00947C29.6696 7.261 29.8442 7.60214 29.8442 7.95785C29.8442 8.94856 29.453 9.96967 28.5933 10.7637C27.7092 11.5809 26.4185 12.0709 24.8714 12.0709C24.1819 12.0709 23.5476 11.9743 22.9818 11.7955C22.8946 12.4218 22.7781 13.0451 22.6326 13.6643C22.0535 16.107 20.8622 18.9719 18.3162 21.0606C16.4486 22.5914 15.4253 24.959 14.8927 27.105C14.5957 28.3194 14.422 29.5515 14.3733 30.7888V30.8943L12.7157 30.8478Z" fill="white"/>
</g>
</svg>
