<svg width="42" height="36" viewBox="0 0 42 36" fill="none" xmlns="http://www.w3.org/2000/svg">
<g id="Group">
<path id="Vector" d="M22.3451 35.7656H27.9179C29.0462 35.7651 30.1478 35.354 31.0765 34.5868C32.0052 33.8195 32.7171 32.7324 33.1179 31.4697C35.4357 31.6896 37.8165 30.7343 39.591 28.6036C41.1338 26.7484 42 24.237 42 21.6191C42 19.0011 41.1338 16.4898 39.591 14.6346L28.5137 1.39783C28.1448 0.954756 27.7064 0.603209 27.2238 0.363341C26.7411 0.123473 26.2237 0 25.7011 0C25.1785 0 24.6611 0.123473 24.1784 0.363341C23.6958 0.603209 23.2574 0.954756 22.8885 1.39783C22.1429 2.29373 21.7243 3.50682 21.7243 4.77145C21.7243 6.03607 22.1429 7.24916 22.8885 8.14506L26.4111 12.3248C26.1076 12.8118 25.8381 13.3278 25.6053 13.8678C25.1379 13.7831 24.6658 13.7411 24.1931 13.7421H14.5438C13.6802 13.7421 12.8454 13.8804 12.0527 14.1443C11.4609 13.0621 10.655 12.1716 9.70662 11.5518C8.75825 10.932 7.69672 10.6021 6.61629 10.5915C5.53587 10.5809 4.46996 10.8898 3.51321 11.4908C2.55646 12.0919 1.73847 12.9664 1.13186 14.0369C0.525253 15.1073 0.148797 16.3405 0.0359144 17.627C-0.0769677 18.9135 0.0772173 20.2134 0.484781 21.4114C0.892344 22.6094 1.54068 23.6684 2.37221 24.4943C3.20375 25.3203 4.19277 25.8876 5.25146 26.146V29.0813C5.25146 32.7676 7.73991 35.7656 10.8216 35.7656H22.3451ZM26.6579 3.61653V3.61967L37.7351 16.8564C38.7863 18.1229 39.3761 19.8359 39.3756 21.6213C39.3751 23.4067 38.7844 25.1193 37.7325 26.3849C37.0544 27.2014 36.2117 27.7944 35.286 28.1066C34.3602 28.4187 33.3829 28.4395 32.4485 28.1667L31.0074 27.7488L30.8368 29.5118C30.6635 31.2654 29.4193 32.623 27.9179 32.623H23.6497V32.3087C23.6497 28.767 20.9723 26.3032 18.0796 26.3032H14.4388C14.0907 26.3032 13.7568 26.4687 13.5107 26.7634C13.2646 27.0581 13.1263 27.4577 13.1263 27.8745C13.1263 28.2912 13.2646 28.6909 13.5107 28.9856C13.7568 29.2803 14.0907 29.4458 14.4388 29.4458H18.0796C19.8908 29.4458 21.0247 30.9071 21.0247 32.3056V32.623H10.8216C10.4339 32.6222 10.0502 32.5299 9.6923 32.3514C9.33443 32.1729 9.00944 31.9118 8.73592 31.5829C8.4624 31.2539 8.24571 30.8637 8.09822 30.4345C7.95074 30.0052 7.87537 29.5454 7.8764 29.0813V24.9016C7.8764 20.4673 10.8662 16.8847 14.5438 16.8847H24.1931C24.8178 16.8847 25.4242 16.9853 25.9938 17.1801L27.1041 17.5509L27.5556 16.2845C27.847 15.4674 28.2512 14.4995 28.7946 13.8081L30.1149 12.2933L24.7469 5.92636C24.4919 5.61954 24.3487 5.2043 24.3487 4.77145C24.3487 4.33859 24.4919 3.92335 24.7469 3.61653C24.8721 3.46564 25.0209 3.34589 25.1849 3.26417C25.3489 3.18245 25.5248 3.14038 25.7024 3.14038C25.88 3.14038 26.0559 3.18245 26.2199 3.26417C26.3839 3.34589 26.5327 3.46564 26.6579 3.61653ZM9.60099 15.4485C8.50184 16.279 7.55977 17.3753 6.83516 18.6671C6.11055 19.9589 5.6194 21.4177 5.3932 22.95C4.80785 22.7316 4.27318 22.3526 3.83178 21.8432C3.39038 21.3338 3.05445 20.708 2.85075 20.0156C2.64705 19.3233 2.5812 18.5836 2.65846 17.8554C2.73572 17.1273 2.95394 16.4308 3.29575 15.8214C3.63756 15.212 4.09351 14.7066 4.62728 14.3455C5.16105 13.9844 5.75788 13.7775 6.37024 13.7412C6.9826 13.705 7.59356 13.8405 8.15446 14.1369C8.71535 14.4333 9.21068 14.8825 9.60099 15.4485Z" fill="white"/>
</g>
</svg>
